<?xml version="1.0" encoding="UTF-8"?>
<!DOCTYPE svg PUBLIC "-//W3C//DTD SVG 1.1//EN" "http://www.w3.org/Graphics/SVG/1.1/DTD/svg11.dtd">
<!-- Creator: CorelDRAW -->
<svg xmlns="http://www.w3.org/2000/svg" xml:space="preserve" width="37.6853mm" height="9.7703mm" style="shape-rendering:geometricPrecision; text-rendering:geometricPrecision; image-rendering:optimizeQuality; fill-rule:evenodd; clip-rule:evenodd"
viewBox="0 0 2170.2 562.648"
 xmlns:xlink="http://www.w3.org/1999/xlink">
 <defs>
  <style type="text/css">
   <![CDATA[
    .fil2 {fill:#AF251C;fill-rule:nonzero}
    .fil3 {fill:url(#id0)}
    .fil4 {fill:url(#id1)}
    .fil5 {fill:url(#id2)}
    .fil1 {fill:url(#id3)}
    .fil0 {fill:url(#id4)}
   ]]>
  </style>
  <linearGradient id="id0" gradientUnits="userSpaceOnUse" x1="669.83" y1="559.809" x2="669.83" y2="210.598">
   <stop offset="0" style="stop-color:#AF251C"/>
   <stop offset="0.701961" style="stop-color:#D34A19"/>
   <stop offset="1" style="stop-color:#E4672F"/>
  </linearGradient>
  <linearGradient id="id1" gradientUnits="userSpaceOnUse" xlink:href="#id0" x1="990.569" y1="559.814" x2="990.569" y2="209.722">
  </linearGradient>
  <linearGradient id="id2" gradientUnits="userSpaceOnUse" xlink:href="#id0" x1="1301.09" y1="559.855" x2="1301.09" y2="210.35">
  </linearGradient>
  <linearGradient id="id3" gradientUnits="userSpaceOnUse" xlink:href="#id0" x1="223.365" y1="556.935" x2="223.365" y2="185.184">
  </linearGradient>
  <linearGradient id="id4" gradientUnits="userSpaceOnUse" xlink:href="#id0" x1="223.365" y1="186.756" x2="223.365" y2="3.8123">
  </linearGradient>
 </defs>
 <g id="Camada_x0020_1">
  <metadata id="CorelCorpID_0Corel-Layer"/>
  <path class="fil0" d="M223.365 190.569c52.4795,0 95.2844,-42.8048 95.2844,-95.2844 0,-52.4795 -42.8048,-95.2844 -95.2844,-95.2844 -52.4795,0 -95.2844,42.8048 -95.2844,95.2844 0,52.4795 42.8048,95.2844 95.2844,95.2844z"/>
  <path class="fil1" d="M290.915 560.73c123.963,-101.924 155.769,-205.939 155.815,-283.198 -44.3482,-59.1309 -184.66,-96.1367 -342.041,-31.4198 -64.3023,42.0735 -104.516,120.387 -104.688,199.017 106.698,-0.00575876 240.221,37.3801 290.915,115.601z"/>
  <path class="fil2" d="M1515.02 245.254c3.90444,0 6.80685,-0.823502 8.71876,-2.44747 1.91191,-1.62397 2.85634,-4.09448 2.85634,-7.42304 0,-3.19035 -0.984747,-5.59175 -2.98304,-7.25603 -1.99253,-1.67004 -4.84887,-2.51082 -8.59206,-2.51082l-10.1181 0 0 19.6374 10.1181 0zm-31.2528 49.6981l0 -84.2852 31.1318 0c11.4484,0 19.9023,1.99253 25.3731,5.96031 5.44778,3.97354 8.18319,10.1412 8.18319,18.5086 0,4.64732 -1.2151,8.63813 -3.62226,11.9494 -2.4014,3.30553 -6.08701,6.12732 -11.0798,8.40778 2.09619,0.760156 3.96778,2.03284 5.63206,3.82381 1.66428,1.79097 3.127,4.05416 4.38241,6.78957l13.4237 28.8456 -23.7894 0 -10.7113 -24.2847c-1.72763,-3.84685 -3.70288,-6.49588 -5.92576,-7.93557 -2.19984,-1.46272 -5.34413,-2.18257 -9.39253,-2.18257 -0.310973,0 -0.74288,0.023035 -1.25541,0.0633463 -0.535564,0.0403113 -0.92716,0.0633463 -1.2151,0.0633463l0 34.2761 -21.1346 0z"/>
  <path id="1" class="fil2" d="M1614.5 288.704c-3.88716,2.52809 -7.99891,4.39969 -12.3122,5.63206 -4.31907,1.2151 -8.92607,1.83128 -13.8383,1.83128 -9.8302,0 -17.5412,-2.6951 -23.1329,-8.08529 -5.57448,-5.36716 -8.37323,-12.8305 -8.37323,-22.3497 0,-8.77634 2.73541,-15.8308 8.18319,-21.1174 5.47082,-5.28654 12.7499,-7.91829 21.8199,-7.91829 8.94335,0 16.0151,2.8621 21.198,8.59782 5.18288,5.71844 7.77432,13.5907 7.77432,23.6455l0 0.598911 -40.4265 0 0 0.247627c0,4.54366 1.54335,8.11985 4.64732,10.7516 3.08669,2.63175 7.31938,3.95051 12.7096,3.95051 3.6165,0 7.23876,-0.639222 10.8553,-1.93494 3.59922,-1.29572 7.23876,-3.20763 10.8956,-5.73572l0 11.8861zm-38.9868 -27.9069l22.1712 -0.0633463c-0.334008,-3.69712 -1.43969,-6.5765 -3.35735,-8.67269 -1.88887,-2.07891 -4.35362,-3.127 -7.35969,-3.127 -3.10397,0 -5.6551,1.04809 -7.68794,3.127 -2.0386,2.09619 -3.28825,4.99284 -3.76623,8.73603z"/>
  <path id="12" class="fil2" d="M1673.7 292.361c-2.68934,1.25541 -5.52841,2.18257 -8.52872,2.77572 -2.98304,0.598911 -6.23097,0.904125 -9.7323,0.904125 -10.2391,0 -18.3416,-2.64903 -24.325,-7.97588 -5.98335,-5.32685 -8.98366,-12.5253 -8.98366,-21.6126 0,-8.98366 2.96,-16.2224 8.88576,-21.6932 5.92,-5.44778 13.8383,-8.18319 23.7088,-8.18319 3.12125,0 6.1849,0.305214 9.15066,0.92716 2.97728,0.633463 5.92,1.56062 8.85697,2.81603l0 14.0226c-3.04062,-1.23237 -5.83938,-2.15953 -8.34444,-2.75844 -2.51082,-0.593152 -4.8316,-0.904125 -6.95082,-0.904125 -5.14257,0 -9.15066,1.39938 -12.0531,4.19813 -2.89665,2.77572 -4.33634,6.63985 -4.33634,11.5751 0,5.03891 1.48,8.92607 4.42272,11.6615 2.96,2.75269 7.17541,4.12903 12.6865,4.12903 2.36109,0 4.80856,-0.305214 7.35969,-0.944436 2.52809,-0.616187 5.24623,-1.56062 8.18319,-2.85634l0 13.9189z"/>
  <path id="123" class="fil2" d="M1722.64 287.8c-2.85634,2.87362 -5.79907,4.96981 -8.86273,6.28856 -3.04062,1.29572 -6.55922,1.95222 -10.5443,1.95222 -6.25401,0 -11.0856,-1.88887 -14.4545,-5.69541 -3.37463,-3.7835 -5.06195,-9.25432 -5.06195,-16.3433l0 -36.1535 18.0134 0 0 33.683c0,4.04841 0.656498,7.01416 1.95222,8.88 1.31876,1.87735 3.3516,2.79876 6.12732,2.79876 2.48778,0 4.8316,-0.760156 7.01416,-2.26319 2.19984,-1.49728 4.12903,-3.74319 5.81634,-6.72047l0 -36.3781 18.0134 0 0 57.1038 -18.0134 0 0 -7.15238z"/>
  <path id="1234" class="fil2" d="M1753.59 294.952l0 -57.1038 18.0134 0 0 15.301c3.04638,-5.77603 5.98335,-9.93385 8.79938,-12.4447 2.81603,-2.50506 5.87969,-3.76047 9.21401,-3.76047 1.64125,0 3.39191,0.351284 5.22319,1.03082 1.80825,0.679533 3.86413,1.7449 6.10428,3.18459l-4.80856 16.3894c-1.80825,-1.39938 -3.47829,-2.42444 -5.01588,-3.06366 -1.52607,-0.639222 -3.02335,-0.967471 -4.50335,-0.967471 -3.41494,0 -6.4786,1.50304 -9.19673,4.52638 -2.71237,3.00031 -4.64732,7.11206 -5.81634,12.3353l0 24.5726 -18.0134 0z"/>
  <path id="12345" class="fil2" d="M1804.07 291.888l0 -12.7096c3.6165,1.647 6.95082,2.91969 10.0375,3.82381 3.0579,0.904125 5.64934,1.35907 7.72825,1.35907 2.85634,0 4.9986,-0.36856 6.45557,-1.0884 1.43969,-0.719845 2.15953,-1.80825 2.15953,-3.24794 0,-1.2151 -0.535564,-2.28623 -1.62397,-3.23066 -1.0884,-0.944436 -3.55891,-2.22288 -7.4,-3.82381 -0.41463,-0.167004 -1.05385,-0.41463 -1.93494,-0.783191 -10.9589,-4.54366 -16.447,-10.36 -16.447,-17.4778 0,-5.42475 2.00981,-9.78413 6.06397,-13.0781 4.02537,-3.28825 9.37525,-4.93525 16.0381,-4.93525 3.57619,0 6.96809,0.391595 10.1584,1.15175 3.20763,0.760156 6.28856,1.91767 9.31191,3.43798l0 12.5829c-3.7835,-2.01556 -7.1351,-3.47829 -10.0951,-4.39969 -2.93697,-0.92716 -5.67237,-1.37634 -8.16016,-1.37634 -2.15953,0 -3.82381,0.385837 -4.9986,1.14599 -1.17479,0.765915 -1.75066,1.83128 -1.75066,3.2537 0,1.84856 3.2537,4.11175 9.77261,6.80109 2.62599,1.05385 4.72794,1.91191 6.24825,2.59144 4.1751,1.81401 7.21572,3.97354 9.12763,6.50164 1.91191,2.52809 2.8621,5.67237 2.8621,9.39253 0,5.90273 -2.0386,10.4464 -6.11004,13.6367 -4.08872,3.16732 -9.87051,4.75097 -17.3742,4.75097 -3.74319,0 -7.27907,-0.351284 -10.6537,-1.04809 -3.3516,-0.702568 -6.4786,-1.79097 -9.41557,-3.23066z"/>
  <path id="123456" class="fil2" d="M1872.25 266.452c0,4.87191 1.16903,8.75907 3.53588,11.6788 2.34381,2.90241 5.45354,4.35938 9.31767,4.35938 3.8814,0 7.00841,-1.45697 9.33494,-4.35938 2.32078,-2.91969 3.49556,-6.80685 3.49556,-11.6788 0,-4.85463 -1.17479,-8.75907 -3.53588,-11.7191 -2.34381,-2.94272 -5.45354,-4.42272 -9.29463,-4.42272 -3.82957,0 -6.93354,1.48 -9.29463,4.42272 -2.36685,2.96 -3.55891,6.86444 -3.55891,11.7191zm-18.4856 0c0,-8.7821 2.89665,-15.9575 8.69572,-21.4686 5.8221,-5.52841 13.3488,-8.28685 22.6434,-8.28685 9.31191,0 16.8789,2.78148 22.7413,8.30989 5.83938,5.55144 8.75907,12.7096 8.75907,21.4456 0,8.71876 -2.91969,15.8366 -8.74179,21.3477 -5.81634,5.48809 -13.4064,8.24078 -22.7586,8.24078 -9.29463,0 -16.8213,-2.73541 -22.6434,-8.2235 -5.79907,-5.48809 -8.69572,-12.6059 -8.69572,-21.365z"/>
  <path id="1234567" class="fil2" d="M1923.78 291.888l0 -12.7096c3.6165,1.647 6.95082,2.91969 10.0375,3.82381 3.0579,0.904125 5.64934,1.35907 7.72825,1.35907 2.85634,0 4.9986,-0.36856 6.45557,-1.0884 1.43969,-0.719845 2.15953,-1.80825 2.15953,-3.24794 0,-1.2151 -0.535564,-2.28623 -1.62397,-3.23066 -1.0884,-0.944436 -3.55891,-2.22288 -7.4,-3.82381 -0.41463,-0.167004 -1.05385,-0.41463 -1.93494,-0.783191 -10.9589,-4.54366 -16.447,-10.36 -16.447,-17.4778 0,-5.42475 2.00981,-9.78413 6.06397,-13.0781 4.02537,-3.28825 9.37525,-4.93525 16.0381,-4.93525 3.57619,0 6.96809,0.391595 10.1584,1.15175 3.20763,0.760156 6.28856,1.91767 9.31191,3.43798l0 12.5829c-3.7835,-2.01556 -7.1351,-3.47829 -10.0951,-4.39969 -2.93697,-0.92716 -5.67237,-1.37634 -8.16016,-1.37634 -2.15953,0 -3.82381,0.385837 -4.9986,1.14599 -1.17479,0.765915 -1.75066,1.83128 -1.75066,3.2537 0,1.84856 3.2537,4.11175 9.77261,6.80109 2.62599,1.05385 4.72794,1.91191 6.24825,2.59144 4.1751,1.81401 7.21572,3.97354 9.12763,6.50164 1.91191,2.52809 2.8621,5.67237 2.8621,9.39253 0,5.90273 -2.0386,10.4464 -6.11004,13.6367 -4.08872,3.16732 -9.87051,4.75097 -17.3742,4.75097 -3.74319,0 -7.27907,-0.351284 -10.6537,-1.04809 -3.3516,-0.702568 -6.4786,-1.79097 -9.41557,-3.23066z"/>
  <polygon id="12345678" class="fil2" points="1483.27,428.048 1483.27,343.763 1504.35,343.763 1504.35,377.567 1541.9,377.567 1541.9,343.763 1562.97,343.763 1562.97,428.048 1541.9,428.048 1541.9,393.893 1504.35,393.893 1504.35,428.048 "/>
  <path id="123456789" class="fil2" d="M1616.43 420.896c-2.85634,2.87362 -5.79907,4.96981 -8.86273,6.28856 -3.04062,1.29572 -6.55922,1.95222 -10.5443,1.95222 -6.25401,0 -11.0856,-1.88887 -14.4545,-5.69541 -3.37463,-3.7835 -5.06195,-9.25432 -5.06195,-16.3433l0 -36.1535 18.0134 0 0 33.683c0,4.04841 0.656498,7.01416 1.95222,8.88 1.31876,1.87735 3.3516,2.79876 6.12732,2.79876 2.48778,0 4.8316,-0.760156 7.01416,-2.26319 2.19984,-1.49728 4.12903,-3.74319 5.81634,-6.72047l0 -36.3781 18.0134 0 0 57.1038 -18.0134 0 0 -7.15238z"/>
  <path id="12345678910" class="fil2" d="M1647.38 428.048l0 -57.1038 17.8867 0 0 7.15813c2.78148,-2.83907 5.71844,-4.93525 8.82241,-6.29432 3.10397,-1.33603 6.58226,-2.01556 10.383,-2.01556 4.26148,0 7.77432,0.863813 10.55,2.59144 2.77572,1.72763 4.89494,4.35938 6.37494,7.89525 3.66257,-3.86413 7.1351,-6.5765 10.4061,-8.14288 3.27097,-1.56062 7.03144,-2.34381 11.2872,-2.34381 6.25401,0 11.0626,1.89463 14.3969,5.70117 3.32856,3.77774 4.99284,9.2716 4.99284,16.4067l0 36.1477 -18.0134 0 0 -33.683c0,-4.21541 -0.633463,-7.21572 -1.88887,-9.02397 -1.27269,-1.80825 -3.33432,-2.71237 -6.16763,-2.71237 -2.48778,0 -4.81432,0.760156 -6.93354,2.25743 -2.1365,1.50304 -4.08872,3.76623 -5.89697,6.76654l0 36.3953 -17.4778 0 0 -33.683c0,-4.1751 -0.639222,-7.17541 -1.89463,-9.00669 -1.27269,-1.82553 -3.32856,-2.72965 -6.16763,-2.72965 -2.44747,0 -4.75097,0.760156 -6.91051,2.25743 -2.1365,1.50304 -4.08872,3.76623 -5.86241,6.76654l0 36.3953 -17.8867 0z"/>
  <path id="1234567891011" class="fil2" d="M1785.29 414.377l0 -13.965c-6.14459,2.15953 -10.2563,4.07144 -12.3122,5.69541 -2.07891,1.62397 -3.10397,3.55891 -3.10397,5.79907 0,1.85432 0.552841,3.31128 1.68156,4.39969 1.13447,1.0884 2.67206,1.62397 4.64732,1.62397 1.31876,0 2.73541,-0.305214 4.27876,-0.904125 1.52031,-0.593152 3.127,-1.48 4.80856,-2.64903zm0.909883 8.36747c-2.6951,2.17681 -5.49385,3.7835 -8.41354,4.8316 -2.89665,1.04809 -6.02366,1.56062 -9.35222,1.56062 -5.51113,0 -9.66895,-1.33603 -12.485,-4.00809 -2.81603,-2.67206 -4.21541,-6.63985 -4.21541,-11.8861 0,-4.58397 2.07891,-8.3502 6.23097,-11.3102 4.15206,-2.93697 13.2624,-6.45557 27.3253,-10.504 0.04607,-0.207315 0.0633463,-0.431907 0.0863813,-0.662257 0.0172763,-0.241868 0.0403113,-0.575876 0.0403113,-0.984747 0,-2.71237 -0.92716,-4.72794 -2.73541,-6.04669 -1.83128,-1.29572 -4.67035,-1.95222 -8.47113,-1.95222 -3.20763,0 -6.49588,0.783191 -9.89354,2.34381 -3.36887,1.56062 -6.66288,3.84685 -9.87051,6.80685l0.247627 -14.2069c3.45525,-2.32654 7.26179,-4.07144 11.4139,-5.22319 4.15206,-1.13447 8.82241,-1.71035 14.0053,-1.71035 8.24654,0 14.2069,1.58366 17.8867,4.75097 3.70288,3.19035 5.55144,8.26957 5.55144,15.2377l0 22.7241c0,1.33603 0.18428,2.26319 0.535564,2.77572 0.36856,0.512529 0.967471,0.777432 1.80825,0.777432 0.783191,0 1.56638,-0.0978989 2.38413,-0.305214 0.823502,-0.18428 1.93494,-0.575876 3.29401,-1.13447l0 9.9972c-3.24794,1.56062 -6.12732,2.71237 -8.65541,3.43222 -2.51082,0.719845 -4.89494,1.0884 -7.1351,1.0884 -2.8621,0 -5.10226,-0.535564 -6.72623,-1.60093 -1.62397,-1.04809 -2.57416,-2.65479 -2.85634,-4.79129z"/>
  <path id="123456789101112" class="fil2" d="M1819.01 428.048l0 -57.1038 17.8867 0 0 7.15813c2.82179,-2.87938 5.75876,-4.9986 8.86273,-6.3116 3.08669,-1.33603 6.62257,-1.99829 10.5904,-1.99829 6.27129,0 11.0856,1.89463 14.4142,5.70117 3.33432,3.77774 4.9986,9.2716 4.9986,16.4067l0 36.1477 -18.0134 0 0 -33.683c0,-4.04841 -0.656498,-7.03144 -1.95222,-8.90304 -1.31876,-1.88887 -3.3516,-2.83331 -6.12732,-2.83331 -2.48778,0 -4.81432,0.760156 -6.95082,2.28047 -2.15953,1.54335 -4.09448,3.7835 -5.8221,6.7435l0 36.3953 -17.8867 0z"/>
  <path id="12345678910111213" class="fil2" d="M1903.59 399.548c0,4.87191 1.16903,8.75907 3.53588,11.6788 2.34381,2.90241 5.45354,4.35938 9.31767,4.35938 3.8814,0 7.00841,-1.45697 9.33494,-4.35938 2.32078,-2.91969 3.49556,-6.80685 3.49556,-11.6788 0,-4.85463 -1.17479,-8.75907 -3.53588,-11.7191 -2.34381,-2.94272 -5.45354,-4.42272 -9.29463,-4.42272 -3.82957,0 -6.93354,1.48 -9.29463,4.42272 -2.36685,2.96 -3.55891,6.86444 -3.55891,11.7191zm-18.4856 0c0,-8.7821 2.89665,-15.9575 8.69572,-21.4686 5.8221,-5.52841 13.3488,-8.28685 22.6434,-8.28685 9.31191,0 16.8789,2.78148 22.7413,8.30989 5.83938,5.55144 8.75907,12.7096 8.75907,21.4456 0,8.71876 -2.91969,15.8366 -8.74179,21.3477 -5.81634,5.48809 -13.4064,8.24078 -22.7586,8.24078 -9.29463,0 -16.8213,-2.73541 -22.6434,-8.2235 -5.79907,-5.48809 -8.69572,-12.6059 -8.69572,-21.365z"/>
  <path id="1234567891011121314" class="fil2" d="M1955.12 424.985l0 -12.7096c3.6165,1.647 6.95082,2.91969 10.0375,3.82381 3.0579,0.904125 5.64934,1.35907 7.72825,1.35907 2.85634,0 4.9986,-0.36856 6.45557,-1.0884 1.43969,-0.719845 2.15953,-1.80825 2.15953,-3.24794 0,-1.2151 -0.535564,-2.28623 -1.62397,-3.23066 -1.0884,-0.944436 -3.55891,-2.22288 -7.4,-3.82381 -0.41463,-0.167004 -1.05385,-0.41463 -1.93494,-0.783191 -10.9589,-4.54366 -16.447,-10.36 -16.447,-17.4778 0,-5.42475 2.00981,-9.78413 6.06397,-13.0781 4.02537,-3.28825 9.37525,-4.93525 16.0381,-4.93525 3.57619,0 6.96809,0.391595 10.1584,1.15175 3.20763,0.760156 6.28856,1.91767 9.31191,3.43798l0 12.5829c-3.7835,-2.01556 -7.1351,-3.47829 -10.0951,-4.39969 -2.93697,-0.92716 -5.67237,-1.37634 -8.16016,-1.37634 -2.15953,0 -3.82381,0.385837 -4.9986,1.14599 -1.17479,0.765915 -1.75066,1.83128 -1.75066,3.2537 0,1.84856 3.2537,4.11175 9.77261,6.80109 2.62599,1.05385 4.72794,1.91191 6.24825,2.59144 4.1751,1.81401 7.21572,3.97354 9.12763,6.50164 1.91191,2.52809 2.8621,5.67237 2.8621,9.39253 0,5.90273 -2.0386,10.4464 -6.11004,13.6367 -4.08872,3.16732 -9.87051,4.75097 -17.3742,4.75097 -3.74319,0 -7.27907,-0.351284 -10.6537,-1.04809 -3.3516,-0.702568 -6.4786,-1.79097 -9.41557,-3.23066z"/>
  <path id="123456789101112131415" class="fil2" d="M2079.77 411.78l0 -24.4459c-1.56062,-1.17479 -3.16732,-2.05588 -4.81432,-2.65479 -1.64125,-0.593152 -3.34584,-0.904125 -5.05619,-0.904125 -4.38241,0 -7.83191,1.42241 -10.36,4.26148 -2.53385,2.81603 -3.80654,6.65712 -3.80654,11.5118 0,4.75097 1.27269,8.55175 3.80654,11.4542 2.52809,2.89665 5.85665,4.33634 9.99144,4.33634 1.76794,0 3.47253,-0.287938 5.13681,-0.863813 1.67004,-0.593152 3.37463,-1.48 5.10226,-2.6951zm0.719845 11.5809c-2.36685,1.99253 -4.89494,3.49556 -7.58428,4.46304 -2.6951,0.961712 -5.6551,1.43969 -8.92607,1.43969 -8.02195,0 -14.5178,-2.73541 -19.4761,-8.20623 -4.95253,-5.44778 -7.44031,-12.6232 -7.44031,-21.509 0,-8.86273 2.48778,-16.0612 7.46335,-21.5896 4.97557,-5.53416 11.4714,-8.28685 19.4531,-8.28685 3.14428,0 6.00638,0.454942 8.59206,1.35907 2.59144,0.904125 4.9986,2.25743 7.19845,4.07144l0 -31.3392 18.0134 0 0 84.2852 -17.2935 0 0 -4.68763z"/>
  <path id="12345678910111213141516" class="fil2" d="M2125.85 399.548c0,4.87191 1.16903,8.75907 3.53588,11.6788 2.34381,2.90241 5.45354,4.35938 9.31767,4.35938 3.8814,0 7.00841,-1.45697 9.33494,-4.35938 2.32078,-2.91969 3.49556,-6.80685 3.49556,-11.6788 0,-4.85463 -1.17479,-8.75907 -3.53588,-11.7191 -2.34381,-2.94272 -5.45354,-4.42272 -9.29463,-4.42272 -3.82957,0 -6.93354,1.48 -9.29463,4.42272 -2.36685,2.96 -3.55891,6.86444 -3.55891,11.7191zm-18.4856 0c0,-8.7821 2.89665,-15.9575 8.69572,-21.4686 5.8221,-5.52841 13.3488,-8.28685 22.6434,-8.28685 9.31191,0 16.8789,2.78148 22.7413,8.30989 5.83938,5.55144 8.75907,12.7096 8.75907,21.4456 0,8.71876 -2.91969,15.8366 -8.74179,21.3477 -5.81634,5.48809 -13.4064,8.24078 -22.7586,8.24078 -9.29463,0 -16.8213,-2.73541 -22.6434,-8.2235 -5.79907,-5.48809 -8.69572,-12.6059 -8.69572,-21.365z"/>
  <polygon id="1234567891011121314151617" class="fil2" points="1483.27,561.145 1483.27,476.86 1539.59,476.86 1539.59,492.402 1504.35,492.402 1504.35,509.575 1538.03,509.575 1538.03,525.245 1504.35,525.245 1504.35,545.354 1540.62,545.354 1540.62,561.145 "/>
  <path id="123456789101112131415161718" class="fil2" d="M1550.08 558.081l0 -12.7096c3.6165,1.647 6.95082,2.91969 10.0375,3.82381 3.0579,0.904125 5.64934,1.35907 7.72825,1.35907 2.85634,0 4.9986,-0.36856 6.45557,-1.0884 1.43969,-0.719845 2.15953,-1.80825 2.15953,-3.24794 0,-1.2151 -0.535564,-2.28623 -1.62397,-3.23066 -1.0884,-0.944436 -3.55891,-2.22288 -7.4,-3.82381 -0.41463,-0.167004 -1.05385,-0.41463 -1.93494,-0.783191 -10.9589,-4.54366 -16.447,-10.36 -16.447,-17.4778 0,-5.42475 2.00981,-9.78413 6.06397,-13.0781 4.02537,-3.28825 9.37525,-4.93525 16.0381,-4.93525 3.57619,0 6.96809,0.391595 10.1584,1.15175 3.20763,0.760156 6.28856,1.91767 9.31191,3.43798l0 12.5829c-3.7835,-2.01556 -7.1351,-3.47829 -10.0951,-4.39969 -2.93697,-0.92716 -5.67237,-1.37634 -8.16016,-1.37634 -2.15953,0 -3.82381,0.385837 -4.9986,1.14599 -1.17479,0.765915 -1.75066,1.83128 -1.75066,3.2537 0,1.84856 3.2537,4.11175 9.77261,6.80109 2.62599,1.05385 4.72794,1.91191 6.24825,2.59144 4.1751,1.81401 7.21572,3.97354 9.12763,6.50164 1.91191,2.52809 2.8621,5.67237 2.8621,9.39253 0,5.90273 -2.0386,10.4464 -6.11004,13.6367 -4.08872,3.16732 -9.87051,4.75097 -17.3742,4.75097 -3.74319,0 -7.27907,-0.351284 -10.6537,-1.04809 -3.3516,-0.702568 -6.4786,-1.79097 -9.41557,-3.23066z"/>
  <path id="12345678910111213141516171819" class="fil2" d="M1605.74 516.503l-8.18895 0 0 -3.86413 23.2999 -25.2925 2.71237 0 0 16.6946 19.5164 0 0 12.4619 -19.5164 0 0 21.077c0,4.38241 0.616187,7.31938 1.8716,8.7821 1.23237,1.45697 3.5186,2.19984 6.80685,2.19984 1.60669,0 3.28825,-0.23035 5.07922,-0.696809 1.79097,-0.454942 3.70288,-1.17479 5.75876,-2.14226l0.120934 13.4467c-2.89665,1.07113 -5.77603,1.89463 -8.67845,2.40716 -2.89665,0.512529 -5.753,0.783191 -8.6151,0.783191 -7.25603,0 -12.4389,-1.8716 -15.5256,-5.61479 -3.10397,-3.72592 -4.64156,-10.1584 -4.64156,-19.2688l0 -20.9734z"/>
  <path id="1234567891011121314151617181920" class="fil2" d="M1682.21 547.473l0 -13.965c-6.14459,2.15953 -10.2563,4.07144 -12.3122,5.69541 -2.07891,1.62397 -3.10397,3.55891 -3.10397,5.79907 0,1.85432 0.552841,3.31128 1.68156,4.39969 1.13447,1.0884 2.67206,1.62397 4.64732,1.62397 1.31876,0 2.73541,-0.305214 4.27876,-0.904125 1.52031,-0.593152 3.127,-1.48 4.80856,-2.64903zm0.909883 8.36747c-2.6951,2.17681 -5.49385,3.7835 -8.41354,4.8316 -2.89665,1.04809 -6.02366,1.56062 -9.35222,1.56062 -5.51113,0 -9.66895,-1.33603 -12.485,-4.00809 -2.81603,-2.67206 -4.21541,-6.63985 -4.21541,-11.8861 0,-4.58397 2.07891,-8.3502 6.23097,-11.3102 4.15206,-2.93697 13.2624,-6.45557 27.3253,-10.504 0.04607,-0.207315 0.0633463,-0.431907 0.0863813,-0.662257 0.0172763,-0.241868 0.0403113,-0.575876 0.0403113,-0.984747 0,-2.71237 -0.92716,-4.72794 -2.73541,-6.04669 -1.83128,-1.29572 -4.67035,-1.95222 -8.47113,-1.95222 -3.20763,0 -6.49588,0.783191 -9.89354,2.34381 -3.36887,1.56062 -6.66288,3.84685 -9.87051,6.80685l0.247627 -14.2069c3.45525,-2.32654 7.26179,-4.07144 11.4139,-5.22319 4.15206,-1.13447 8.82241,-1.71035 14.0053,-1.71035 8.24654,0 14.2069,1.58366 17.8867,4.75097 3.70288,3.19035 5.55144,8.26957 5.55144,15.2377l0 22.7241c0,1.33603 0.18428,2.26319 0.535564,2.77572 0.36856,0.512529 0.967471,0.777432 1.80825,0.777432 0.783191,0 1.56638,-0.0978989 2.38413,-0.305214 0.823502,-0.18428 1.93494,-0.575876 3.29401,-1.13447l0 9.9972c-3.24794,1.56062 -6.12732,2.71237 -8.65541,3.43222 -2.51082,0.719845 -4.89494,1.0884 -7.1351,1.0884 -2.8621,0 -5.10226,-0.535564 -6.72623,-1.60093 -1.62397,-1.04809 -2.57416,-2.65479 -2.85634,-4.79129z"/>
  <path id="123456789101112131415161718192021" class="fil2" d="M1755.4 544.876l0 -24.4459c-1.56062,-1.17479 -3.16732,-2.05588 -4.81432,-2.65479 -1.64125,-0.593152 -3.34584,-0.904125 -5.05619,-0.904125 -4.38241,0 -7.83191,1.42241 -10.36,4.26148 -2.53385,2.81603 -3.80654,6.65712 -3.80654,11.5118 0,4.75097 1.27269,8.55175 3.80654,11.4542 2.52809,2.89665 5.85665,4.33634 9.99144,4.33634 1.76794,0 3.47253,-0.287938 5.13681,-0.863813 1.67004,-0.593152 3.37463,-1.48 5.10226,-2.6951zm0.719845 11.5809c-2.36685,1.99253 -4.89494,3.49556 -7.58428,4.46304 -2.6951,0.961712 -5.6551,1.43969 -8.92607,1.43969 -8.02195,0 -14.5178,-2.73541 -19.4761,-8.20623 -4.95253,-5.44778 -7.44031,-12.6232 -7.44031,-21.509 0,-8.86273 2.48778,-16.0612 7.46335,-21.5896 4.97557,-5.53416 11.4714,-8.28685 19.4531,-8.28685 3.14428,0 6.00638,0.454942 8.59206,1.35907 2.59144,0.904125 4.9986,2.25743 7.19845,4.07144l0 -31.3392 18.0134 0 0 84.2852 -17.2935 0 0 -4.68763z"/>
  <path id="12345678910111213141516171819202122" class="fil2" d="M1801.48 532.645c0,4.87191 1.16903,8.75907 3.53588,11.6788 2.34381,2.90241 5.45354,4.35938 9.31767,4.35938 3.8814,0 7.00841,-1.45697 9.33494,-4.35938 2.32078,-2.91969 3.49556,-6.80685 3.49556,-11.6788 0,-4.85463 -1.17479,-8.75907 -3.53588,-11.7191 -2.34381,-2.94272 -5.45354,-4.42272 -9.29463,-4.42272 -3.82957,0 -6.93354,1.48 -9.29463,4.42272 -2.36685,2.96 -3.55891,6.86444 -3.55891,11.7191zm-18.4856 0c0,-8.7821 2.89665,-15.9575 8.69572,-21.4686 5.8221,-5.52841 13.3488,-8.28685 22.6434,-8.28685 9.31191,0 16.8789,2.78148 22.7413,8.30989 5.83938,5.55144 8.75907,12.7096 8.75907,21.4456 0,8.71876 -2.91969,15.8366 -8.74179,21.3477 -5.81634,5.48809 -13.4064,8.24078 -22.7586,8.24078 -9.29463,0 -16.8213,-2.73541 -22.6434,-8.2235 -5.79907,-5.48809 -8.69572,-12.6059 -8.69572,-21.365z"/>
  <path id="1234567891011121314151617181920212223" class="fil2" d="M1908.07 513.479l0.36856 0.0633463c3.00607,0.167004 5.18288,0.247627 6.50164,0.247627 6.68016,0 11.5348,-0.950195 14.5754,-2.83907 3.06366,-1.8716 4.58973,-4.85463 4.58973,-8.90304 0,-3.86413 -1.35907,-6.70319 -4.09448,-8.55175 -2.73541,-1.85432 -6.92778,-2.78148 -12.6059,-2.78148 -1.56062,0 -2.75269,0.023035 -3.59346,0.0633463 -0.846537,0.0403113 -1.647,0.103658 -2.4302,0.18428l-3.31128 22.5167zm-25.4134 47.6652l12.5829 -84.2852 19.3494 0c6.95082,0 12.318,0.287938 16.1418,0.840778 3.80654,0.558599 6.91051,1.48 9.2716,2.77572 3.97354,2.07891 7.09479,4.9986 9.33494,8.74179 2.24591,3.72016 3.37463,7.83191 3.37463,12.3353 0,5.8221 -1.60093,10.717 -4.80856,14.7021 -3.23066,3.97354 -7.6937,6.60529 -13.4294,7.90101 2.36685,1.27269 5.0965,4.60125 8.18319,9.99144 3.08669,5.38444 7.34241,14.3911 12.7729,26.997l-19.5164 0c-1.52031,-3.127 -3.53588,-7.3021 -6.02366,-12.4792 -3.66257,-7.63035 -6.08701,-12.3583 -7.3021,-14.1493 -1.72763,-2.65479 -3.6165,-4.56669 -5.71844,-5.69541 -2.07315,-1.15175 -4.68763,-1.72763 -7.83191,-1.72763 -0.800467,0 -1.41665,0 -1.8716,0.023035 -0.431907,0.0172763 -0.840778,0.0575876 -1.19206,0.0978989l-5.05619 33.9306 -18.261 0z"/>
  <path id="123456789101112131415161718192021222324" class="fil2" d="M1960.74 539.141c4.97557,2.94272 9.35798,5.07922 13.1415,6.43829 3.76047,1.33603 7.25603,2.01556 10.4867,2.01556 3.67985,0 6.70319,-0.886848 9.02397,-2.67206 2.32654,-1.79097 3.50132,-4.07144 3.50132,-6.84716 0,-3.66257 -3.99082,-7.98164 -11.9897,-12.9572 -1.72763,-1.12872 -3.08669,-1.99253 -4.03113,-2.59144 -5.2635,-3.36887 -9.1737,-6.84716 -11.7191,-10.4233 -2.55113,-3.57619 -3.82381,-7.31938 -3.82381,-11.2699 0,-7.25603 2.85634,-13.3027 8.55175,-18.094 5.69541,-4.79129 12.9342,-7.19845 21.6702,-7.19845 3.82957,0 7.65339,0.495253 11.5175,1.48576 3.84685,0.984747 7.7916,2.48778 11.8055,4.54366l-2.82179 15.1743c-3.86413,-2.11922 -7.44031,-3.70288 -10.7516,-4.75097 -3.33432,-1.04809 -6.41525,-1.56638 -9.25432,-1.56638 -3.6165,0 -6.55922,0.806226 -8.82241,2.40716 -2.28047,1.60669 -3.40918,3.66257 -3.40918,6.15035 0,3.00031 3.16156,6.53619 9.51922,10.5904 2.85634,1.80825 5.07922,3.28825 6.68016,4.46304 5.75876,4.08872 9.66319,7.76856 11.7651,11.0223 2.07315,3.24794 3.12125,6.96809 3.12125,11.1432 0,7.7916 -2.64903,14.1435 -7.97588,19.0615 -5.32685,4.91222 -12.2546,7.38273 -20.7718,7.38273 -4.84887,0 -9.57681,-0.719845 -14.1838,-2.14226 -4.58397,-1.41665 -9.23129,-3.59346 -13.9419,-6.53619l2.71237 -14.8288z"/>
  <path class="fil3" d="M604.543 238.021l0 137.87c7.0372,0.218833 26.4327,0 40.9102,0 39.7815,0 62.4249,-45.2178 62.4249,-69.8307 0,-46.1276 -20.7085,-62.7877 -60.0178,-68.0397 -12.5426,0 -43.3174,0 -43.3174,0zm-80.3174 -27.4232c0,0 133.874,0 171.83,0 116.287,0 119.385,151.657 16.303,178.383 48.4599,82.9549 100.784,170.834 100.784,170.834 0,0 -93.7065,0 -93.3034,0 -58.0137,-123.393 -81.2042,-157.963 -81.2042,-157.963l-34.0918 0c0,0.18428 0,73.5451 0,79.563 0,35.4451 4.41121,78.3997 4.41121,78.3997l-84.7286 0 4.73946 -78.3997c0,0 0,-190.01 0,-190.229 0,-24.469 -4.73946,-80.588 -4.73946,-80.588z"/>
  <path class="fil4" d="M930.972 393.571c0,44.1581 0,87.6598 0,87.6598l4.59549 78.584 -84.9186 0 4.77401 -78.584c0,0 0,-190.482 0,-190.701 0,-24.5784 -4.77401,-80.8069 -4.77401,-80.8069l84.9186 0c0,0 -4.59549,56.1191 -4.59549,80.8069 0,0 0,37.8811 0,77.8872l119.442 0c0,-40.1155 0,-77.8872 0,-77.8872 0,-24.6878 -4.95829,-80.8069 -4.95829,-80.8069l85.028 0c0,0 -4.52062,56.2285 -4.52062,80.8069 0,0.218833 0,190.701 0,190.701l4.52062 78.584 -85.028 0 4.95829 -78.584c0,0 0,-43.6111 0,-87.6598l-119.442 0z"/>
  <path class="fil5" d="M1275.54 235.51l0 132.981 10.5097 -0.109416 71.9441 -6.66864 0 39.5223 -71.8693 -7.43455 -10.5846 0 0 140.75 52.2204 0 79.0908 -9.62864 -2.91393 34.9326 -208.611 -0.0345525 4.77977 -78.5437c0,0 0,-190.085 0,-190.304 0,-40.8411 -4.77977,-80.6226 -4.77977,-80.6226l208.611 0.109416 2.91393 34.8578 -79.0908 -9.7323 -52.2204 -0.0748638z"/>
 </g>
</svg>
